PathFileType	4	(X/Y/Z)	C:/Users/beibeiliu/ov580/test_trc/User1\sequence.3_training_dense_left.trc
DataRate	CameraRate	NumFrames	NumMarkers	Units	OrigDataRate	OrigDataStartFrame	OrigNumFrames
120	120	16	19	mm	120	1	64
Frame#	Time	ThumbCMC			ThumbMCP			ThumbIP			ThumbTip			IndexMCP			IndexPIP			IndexTip			MiddleMCP			MiddlePIP			MiddleTip			RingMCP			RingPIP			RingTip			PinkyMCP			PinkyPIP			PinkyTip			BackHand1			BackHand2			BackHand3	
		X0	Y0	Z0	X1	Y1	Z1	X2	Y2	Z2	X3	Y3	Z3	X4	Y4	Z4	X5	Y5	Z5	X6	Y6	Z6	X7	Y7	Z7	X8	Y8	Z8	X9	Y9	Z9	X10	Y10	Z10	X11	Y11	Z11	X12	Y12	Z12	X13	Y13	Z13	X14	Y14	Z14	X15	Y15	Z15	X16	Y16	Z16	X17	Y17	Z17	X18	Y18	Z18	
0	0	-137.756	90.592	106.384	-113.002	88.6066	77.9537	-100.023	92.229	51.0125	-97.2079	82.9262	20.0107	-161.622	113.822	26.5819	-139.171	103.349	4.63468	-117.537	84.4513	31.641	-173.159	96.7558	13.6229	-145.502	81.6006	-2.98556	-130.014	62.7631	28.2395	-178.427	73.8419	11.0789	-151.793	59.8764	1.86796	-139.883	47.7683	32.0828	-185.015	46.6259	20.4539	-159.315	40.3266	14.6989	-140.424	41.2314	43.0114	-202.727	70.5681	71.0597	-202.252	55.8761	108.669	-183.339	90.6984	98.0972	
1	0.00833333	-143.396	92.3052	108.888	-117.946	96.2122	81.4758	-111.625	98.2408	54.4409	-107.777	91.1399	23.833	-161.052	120.338	31.7763	-134.636	103.846	16.4694	-126.459	87.2224	48.9617	-169.965	102.934	17.99	-143.656	87.56	8.18122	-135.857	67.5025	44.0444	-179.936	76.5115	15.7921	-148.598	65.4708	14.4738	-146.561	54.6256	51.2529	-186.048	55.145	26.6991	-154.145	44.6424	27.7671	-146.357	44.56	57.1562	-206.79	70.8642	75.845	-206.258	59.4048	108.792	-186.441	93.734	101.385	
2	0.0166667	-144.86	91.9446	113.895	-120.775	97.3933	87.4771	-111.546	104.467	54.791	-112.753	94.6815	31.1827	-153.208	126.707	36.4152	-134.288	106.478	25.1397	-128.301	91.9876	56.7767	-170.656	105.034	24.689	-140.393	87.7924	18.7803	-136.884	71.7551	54.2237	-175.799	84.5252	23.4837	-144.79	65.5782	28.4208	-151.939	57.5976	60.2212	-183.667	58.6553	27.1917	-155.145	47.2789	35.3981	-155.498	49.2594	66.5342	-209.221	74.4878	76.8218	-206.337	60.5317	109.336	-188.531	92.614	106.431	
3	0.025	-142.335	95.6502	111.849	-120.678	97.3339	85.3947	-111.945	102.044	57.1838	-112.567	91.9671	31.5572	-151.796	124.186	37.646	-127.151	104.1	31.3503	-134.738	88.1521	59.4769	-167.2	106.111	28.1229	-137.082	84.2678	23.9778	-139.804	69.4839	59.0447	-170.268	83.6208	23.9873	-143.819	63.3865	32.3391	-149.282	58.3394	61.958	-181.282	62.1535	31.587	-153.584	50.5017	40.4601	-156.602	49.3901	72.7441	-206.609	77.6561	74.8294	-208.762	59.084	107.104	-187.288	95.58	105.309	
4	0.0333333	-144.1	89.5432	113.345	-118.68	96.6798	83.3217	-108.305	100.029	57.273	-113.264	87.6681	27.669	-150.274	124.948	40.961	-128.415	103.497	28.9925	-130.217	88.7908	62.4427	-160.829	105.767	24.5463	-133.807	83.5421	27.331	-136.741	69.5524	59.3647	-171.187	77.7456	23.7146	-141.467	61.8815	35.308	-153.635	56.8243	66.0915	-179.122	55.3448	29.2732	-153.95	49.8803	41.3731	-158.046	48.6758	74.5298	-207.413	76.8671	75.2216	-205.34	63.4232	108.199	-186.087	93.7219	104.374	
5	0.0416667	-144.223	91.9116	109.79	-119.469	95.4821	83.5945	-112.191	98.5095	53.2003	-115.395	84.4445	26.2876	-150.635	124.684	41.6547	-129.55	99.016	30.5555	-130.742	88.8162	61.7552	-163.548	101.526	23.9236	-135.006	83.5802	24.2159	-139.638	67.2434	58.8511	-171.266	76.3968	23.1464	-143.225	58.4846	34.4482	-152.403	54.0472	63.4409	-178.856	56.9717	29.2894	-154.232	48.6577	39.7005	-159.734	47.2125	72.5741	-205.144	76.6738	78.9535	-206.078	59.8717	108.482	-184.141	94.9044	106.393	
6	0.05	-142.631	93.1146	110.409	-117.436	95.6034	81.8244	-112.017	94.0639	55.9795	-116.824	83.0198	28.3932	-151.32	120.955	35.2325	-129	103.981	28.0369	-132.053	87.7938	60.0836	-164.036	100.25	22.6187	-136.279	84.5705	21.8855	-138.015	67.5345	60.3051	-171.33	80.2417	25.4149	-143.846	60.0473	31.5544	-151.752	56.6958	67.0325	-179.656	54.1693	28.3807	-153.532	45.0215	43.4166	-160.193	47.3317	73.3568	-203.112	75.9165	78.7023	-207.193	57.9867	109.204	-187.564	92.7112	106.454	
7	0.0583333	-142.554	90.6657	114.552	-117.329	93.565	84.2319	-110.192	97.0576	51.9479	-115.256	82.4708	25.1369	-152.141	122.778	36.1387	-127.197	102.337	29.8102	-131.842	87.2306	59.0211	-163.211	101.563	23.5142	-136.903	83.1684	22.1105	-137.2	70.3946	62.7165	-170.347	80.1503	24.5352	-145.106	57.5951	31.3687	-151.467	53.884	62.9907	-177.677	54.5216	26.9804	-154.337	46.2868	39.9923	-162.104	48.1804	74.5581	-206.773	72.4973	76.9233	-207.273	59.2651	107.771	-186.343	95.7775	107.124	
8	0.0666667	-142.763	90.4018	110.998	-118.966	92.9301	81.1067	-113.729	93.5147	53.5879	-119.831	80.3617	25.0112	-153.378	121.871	37.3671	-127.208	100.182	28.8602	-129.543	91.3343	63.5327	-164.858	101.318	24.993	-135.726	77.8524	23.421	-137.68	67.6937	59.7819	-168.815	76.1377	22.3682	-143.269	56.6164	31.2342	-150.637	56.0956	65.9178	-180.586	52.844	28.3343	-153.074	44.8334	39.3354	-159.089	45.6763	73.9129	-204.309	73.1583	75.4903	-206.527	55.4685	109.092	-185.677	91.5058	105.46	
9	0.075	-147.654	90.105	110.374	-117.936	97.0289	81.1033	-109.943	97.1724	54.5894	-115.719	79.3607	29.5193	-153.818	117.621	33.2315	-130.149	98.5086	24.9101	-132.338	88.0303	60.8672	-161.776	95.8108	20.8314	-131.17	79.5722	22.8918	-135.196	68.2882	59.6468	-163.007	72.006	21.2948	-138.033	53.0595	31.3834	-147.804	53.4516	65.3961	-173.964	49.1116	30.1147	-146.316	40.2922	44.3472	-155.208	46.1836	74.1365	-204.968	63.3911	71.8056	-206.365	52.575	103.543	-188.523	88.6615	102.797	
10	0.0833333	-158.174	99.185	102.412	-129.824	105.814	77.0587	-118.09	103.491	49.3976	-113.249	81.5105	25.7892	-159.908	104.494	22.2274	-130.505	96.9078	23.7248	-139.797	90.7201	59.9448	-159.169	80.8301	13.7433	-128.527	76.0346	22.7272	-135.52	67.9269	60.5437	-156.821	53.1096	20.2594	-127.942	52.2164	36.2914	-143.675	55.6149	69.2216	-159.496	36.1897	32.4261	-133.534	40.3193	50.3272	-149.189	47.4113	77.0318	-199.498	47.3709	67.5168	-200.97	42.7765	99.35	-196.935	79.7271	92.0728	
11	0.0916667	-174.958	96.6484	93.2688	-147.423	115.044	67.6338	-131.822	111.213	41.9311	-117.994	87.9425	26.9486	-166.276	90.1327	11.5339	-136.148	93.1217	19.9216	-146.605	90.4059	51.5252	-158.799	65.0546	10.7062	-126.22	72.97	23.8789	-140.755	73.6558	62.418	-148.011	43.4867	22.2374	-122.864	58.5434	38.7549	-139.262	57.3939	68.8862	-140.08	32.353	36.7541	-125.814	45.693	54.0563	-147.338	49.3558	81.62	-191.756	30.5811	63.9973	-195.669	29.5278	99.8377	-201.624	68.8836	80.6263	
12	0.1	-193.504	88.3665	77.9902	-169.914	106.399	55.736	-151.642	110.459	31.2137	-128.005	92.9872	17.6474	-173.817	74.6821	2.30881	-148.083	89.3612	10.3093	-158.817	88.8298	42.2782	-158.279	55.5823	6.48904	-132.471	73.9579	21.9898	-146.089	74.57	56.4269	-141.09	37.944	22.3535	-126.915	64.8953	40.3695	-146.052	60.4558	67.1811	-133.901	26.8917	41.5077	-124.522	50.7789	55.9493	-152.234	52.305	79.6703	-184.979	22.5528	62.1695	-192.501	24.1997	101.071	-206.647	51.6267	76.0775	
13	0.108333	-206.008	84.2202	75.756	-186.759	105.018	46.0819	-169.133	105.775	21.6482	-142.071	92.0802	10.8075	-184.679	60.3002	-0.419338	-159.421	80.7323	1.04947	-173.739	83.9928	37.0687	-163.187	48.8036	1.82286	-143.647	73.6788	15.5959	-157.055	75.0943	49.924	-146.218	39.3781	18.6201	-133.588	63.1152	34.2772	-153.261	61.3924	62.1802	-137.005	32.5259	37.0849	-133.236	54.6754	56.6425	-158.808	51.4995	74.6675	-185.604	16.1287	61.3813	-195.333	18.358	97.2778	-214.858	41.6266	74.849	
14	0.116667	-215.361	80.7054	71.9982	-196.978	100.249	45.2334	-180.382	101.767	18.8293	-155.912	87.5123	5.49702	-194.689	54.3646	-6.00182	-170.514	73.3131	-3.53528	-182.704	78.8787	30.1654	-177.807	41.8564	-0.601838	-155.117	67.422	7.76511	-168.862	67.832	47.746	-157.842	33.1048	14.0748	-143.606	58.7399	29.9446	-161.783	57.6998	55.8623	-143.175	24.7638	33.3596	-139.006	48.8986	47.1049	-166.456	46.7697	72.912	-192.801	8.14871	62.6606	-200.27	16.5726	94.5153	-220.859	36.3222	71.0249	
15	0.125	-216.915	78.6226	70.0792	-197.386	92.7479	40.1067	-183.848	91.8652	10.8674	-162.085	78.0375	-0.936045	-210.725	52.3966	-8.28793	-182.683	68.5173	-10.1008	-188.978	72.1997	28.5474	-192.529	32.0488	-4.30507	-165.56	58.6092	3.06356	-173.505	62.3995	39.5129	-174.833	20.7017	8.80738	-155.992	45.7231	20.5731	-170.402	47.006	51.0802	-160.773	10.3925	26.7411	-153.201	35.7798	38.622	-176.163	40.9364	63.4236	-210.257	6.1001	55.7702	-213.749	12.1903	92.2539	-234.194	37.0877	66.9783	
